<?xml version="1.0" encoding="UTF-8" standalone="no"?>
<!DOCTYPE svg PUBLIC "-//W3C//DTD SVG 1.1//EN" "http://www.w3.org/Graphics/SVG/1.1/DTD/svg11.dtd">
<svg version="1.1" xmlns="http://www.w3.org/2000/svg" xmlns:xlink="http://www.w3.org/1999/xlink" preserveAspectRatio="xMidYMid meet" viewBox="0 0 50 50" width="50" height="50"><defs><path d="M43.75 9C44.61 9 45.31 9.7 45.31 10.56C45.31 11.81 45.31 14 45.31 15.25C45.31 16.11 44.61 16.81 43.75 16.81C35.94 16.81 14.06 16.81 6.25 16.81C5.39 16.81 4.69 16.11 4.69 15.25C4.69 14 4.69 11.81 4.69 10.56C4.69 9.7 5.39 9 6.25 9C14.06 9 35.94 9 43.75 9Z" id="dzM1OzTXR"></path><path d="M43.75 21.5C44.61 21.5 45.31 22.2 45.31 23.06C45.31 24.31 45.31 26.5 45.31 27.75C45.31 28.61 44.61 29.31 43.75 29.31C35.94 29.31 14.06 29.31 6.25 29.31C5.39 29.31 4.69 28.61 4.69 27.75C4.69 26.5 4.69 24.31 4.69 23.06C4.69 22.2 5.39 21.5 6.25 21.5C14.06 21.5 35.94 21.5 43.75 21.5Z" id="e6D93Oc64"></path><path d="M43.75 34C44.61 34 45.31 34.7 45.31 35.56C45.31 36.81 45.31 39 45.31 40.25C45.31 41.11 44.61 41.81 43.75 41.81C35.94 41.81 14.06 41.81 6.25 41.81C5.39 41.81 4.69 41.11 4.69 40.25C4.69 39 4.69 36.81 4.69 35.56C4.69 34.7 5.39 34 6.25 34C14.06 34 35.94 34 43.75 34Z" id="aG6ahSdLN"></path></defs><g><g><g><use xlink:href="#dzM1OzTXR" opacity="1" fill="#8f8f8f" fill-opacity="0.5"></use></g><g><use xlink:href="#e6D93Oc64" opacity="1" fill="#8f8f8f" fill-opacity="0.5"></use></g><g><use xlink:href="#aG6ahSdLN" opacity="1" fill="#8f8f8f" fill-opacity="0.5"></use></g></g></g></svg>